<svg xmlns="http://www.w3.org/2000/svg" viewBox="0 0 480 160" role="img" aria-label="Superpowers Codex logo">
  <rect width="480" height="160" rx="28" fill="#0F172A"/>
  <circle cx="80" cy="80" r="42" fill="#0F766E"/>
  <path d="M58 84c0-17 14-30 32-30 8 0 15 2 21 7l-8 10c-4-3-7-4-12-4-9 0-16 7-16 17s7 17 16 17c5 0 8-2 12-4l8 10c-6 5-13 7-21 7-18 0-32-13-32-30Z" fill="#F8FAFC"/>
  <text x="148" y="80" fill="#F8FAFC" font-family="Segoe UI, Arial, sans-serif" font-size="34" font-weight="700">Superpowers</text>
  <text x="148" y="114" fill="#94A3B8" font-family="Segoe UI, Arial, sans-serif" font-size="22">Codex Global Bundle</text>
</svg>
